<svg data-v-0dd9719b="" version="1.0"
  xmlns="http://www.w3.org/2000/svg"
  xmlns:xlink="http://www.w3.org/1999/xlink" width="100%" height="100%" viewBox="0 0 340.000000 250.000000" preserveAspectRatio="xMidYMid meet" color-interpolation-filters="sRGB" style="margin: auto;">
  <circle cx="170" cy="125" r="125" fill="#fff1d3" fill-opacity="1" class="background"></circle>
  <g data-v-0dd9719b="" fill="#3a211c" class="pmspacesvg" transform="translate(84.79499816894531,99.3797492980957)">
    <g>
      <g transform="translate(0,0)">
        <g mask="url(#35f9d67d-d429-4a4c-9bd5-d385a276b3d6)">
          <rect data-gra="graph-name" x="0" y="0" width="85.20500183105469" height="46.28800048828125" fill="#FFCC66"></rect>
        </g>
        <g data-gra="path-name" fill-rule="" class="tp-name" fill="#3a211c" transform="translate(0,8.679000091552734)">
          <g transform="scale(1)">
            <g>
              <path d="M28.04-21.78L28.04-21.78Q28.04-19.13 26.55-16.88 25.06-14.63 21.64-13.46L21.64-13.46 26.86 0 16.83 0 12.87-12.46 12.38-12.46 9.72 0 0 0 6.08-28.57 17.91-28.57Q19.98-28.57 21.82-28.33 23.67-28.08 25.04-27.34 26.41-26.59 27.22-25.27 28.04-23.94 28.04-21.78ZM12.96-15.34L15.07-15.34Q16.25-15.34 17.08-16.13 17.91-16.92 18.43-18.04 18.95-19.17 19.17-20.45 19.39-21.73 19.39-22.68L19.39-22.68Q19.39-23.85 18.99-24.68 18.59-25.52 17.23-25.52L17.23-25.52 15.21-25.52 12.96-15.34ZM29.2-7.42L30.15-11.52 44.33-11.52 43.42-7.42 29.2-7.42ZM76.72-28.57L70.56 0 60.03 0 55.04-20.65 50.63 0 46.58 0 52.65-28.57 63.41-28.57 68.13-7.65 72.59-28.57 76.72-28.57ZM77.94-13.68L78.8-17.68Q81.09-18.81 83.5-19.33 85.91-19.84 88.88-19.84L88.88-19.84Q91.76-19.84 93.65-19.39 95.54-18.95 96.66-18.09 97.79-17.23 98.24-16.06 98.69-14.89 98.69-13.41L98.69-13.41Q98.69-12.55 98.57-11.56 98.46-10.57 98.33-9.9L98.33-9.9 96.21 0 88.97 0 88.16-2.88 87.89-2.88Q86.45-1.3 84.53-0.47 82.62 0.36 80.73 0.36L80.73 0.36Q79.65 0.36 78.62 0.04 77.58-0.27 76.77-0.92 75.96-1.57 75.47-2.59 74.97-3.6 74.97-5.04L74.97-5.04Q74.97-7.38 76.25-8.75 77.54-10.13 79.63-10.82 81.72-11.52 84.35-11.7 86.99-11.88 89.64-11.88L89.64-11.88Q89.73-12.33 89.87-13.16 90-13.99 90-14.63L90-14.63Q90-15.43 89.57-16.13 89.15-16.83 87.8-16.83L87.8-16.83Q86.22-16.83 85.48-15.91 84.74-14.98 84.51-13.68L84.51-13.68 77.94-13.68ZM88.43-6.3L89.15-9.76 88.34-9.76Q87.03-9.76 86.11-9.43 85.19-9.09 84.62-8.55 84.06-8.01 83.79-7.33 83.52-6.66 83.52-5.98L83.52-5.98Q83.52-4.91 84.08-4.37 84.65-3.82 85.41-3.82L85.41-3.82Q86.36-3.82 87.28-4.5 88.2-5.17 88.43-6.3L88.43-6.3ZM121.68-7.42L120.38-1.08Q118.49-0.32 116.39 0.02 114.3 0.36 111.65 0.36L111.65 0.36Q109.31 0.36 107.35-0.11 105.39-0.58 103.95-1.62 102.51-2.65 101.7-4.3 100.89-5.94 100.89-8.28L100.89-8.28Q100.89-10.71 101.72-12.8 102.56-14.89 104.24-16.47 105.93-18.04 108.54-18.95 111.15-19.84 114.75-19.84L114.75-19.84Q117.68-19.84 119.84-19.37 122-18.9 123.39-17.23L123.39-17.23 122.13-11.47 116.01-11.47Q116.06-12.24 116.1-12.82 116.15-13.41 116.15-14.13L116.15-14.13Q116.15-15.57 115.83-16.18 115.52-16.79 114.8-16.79L114.8-16.79Q113.54-16.79 112.59-15.55 111.65-14.31 111.04-12.58 110.43-10.84 110.14-8.93 109.85-7.02 109.85-5.67L109.85-5.67Q109.85-5.17 109.89-4.66 109.94-4.14 110.09-3.69 110.25-3.24 110.52-2.97 110.79-2.7 111.29-2.7L111.29-2.7Q111.74-2.7 112.32-2.97 112.91-3.24 113.45-3.8 113.99-4.37 114.48-5.26 114.98-6.17 115.25-7.42L115.25-7.42 121.68-7.42ZM138.02-19.84L138.02-19.84Q143.37-19.84 145.8-17.95L145.8-17.95Q148.37-15.97 148.37-11.38L148.37-11.38Q148.37-8.55 147.42-6.28 146.47-4 144.77-2.52L144.77-2.52Q141.34 0.36 134.87 0.36L134.87 0.36Q129.33 0.36 126.95-1.75L126.95-1.75Q124.38-3.96 124.38-8.37L124.38-8.37Q124.38-11.29 125.57-13.68 126.77-16.06 129.02-17.64L129.02-17.64Q132.3-19.84 138.02-19.84ZM134.96-2.7L134.96-2.7Q136.08-2.7 136.91-3.96 137.75-5.22 138.24-7.04 138.74-8.87 138.98-10.82 139.23-12.78 139.23-14.22L139.23-14.22Q139.23-15.48 138.98-16.13 138.74-16.79 137.93-16.79L137.93-16.79Q136.71-16.79 135.83-15.48 134.96-14.17 134.41-12.38 133.88-10.57 133.63-8.69 133.38-6.79 133.38-5.63L133.38-5.63Q133.38-2.7 134.96-2.7ZM169.38-13.68L163.53-13.68Q163.57-13.9 163.62-14.13 163.66-14.35 163.66-14.63L163.66-14.63Q163.66-15.43 163.37-16.13 163.08-16.83 162.22-16.83L162.22-16.83Q161.46-16.83 160.69-16.18 159.93-15.52 159.93-14.45L159.93-14.45Q159.93-13.72 160.31-13.3 160.69-12.87 161.32-12.6 161.96-12.33 162.74-12.15 163.53-11.97 164.3-11.79L164.3-11.79Q165.38-11.52 166.34-11.14 167.31-10.75 168.07-10.13 168.84-9.49 169.29-8.57 169.74-7.65 169.74-6.3L169.74-6.3Q169.74-4.41 168.86-3.13 167.99-1.84 166.43-1.06 164.88-0.27 162.79 0.04 160.69 0.36 158.31 0.36L158.31 0.36Q154.66 0.36 152.28-0.18 149.9-0.72 148.95-1.21L148.95-1.21 149.9-5.71 155.97-5.71Q155.93-5.49 155.93-5.29 155.93-5.08 155.93-4.86L155.93-4.86Q155.93-3.82 156.4-3.22 156.87-2.61 158.04-2.61L158.04-2.61Q159.34-2.61 159.91-3.35 160.47-4.09 160.47-4.72L160.47-4.72Q160.47-5.35 160-5.83 159.53-6.3 158.81-6.64 158.09-6.97 157.21-7.22 156.33-7.47 155.52-7.69L155.52-7.69Q154.94-7.83 154.19-8.14 153.45-8.46 152.78-9.04 152.1-9.63 151.65-10.55 151.2-11.47 151.2-12.87L151.2-12.87Q151.2-14.85 152.17-16.18 153.13-17.5 154.69-18.31 156.24-19.13 158.2-19.48 160.16-19.84 162.13-19.84L162.13-19.84Q164.61-19.84 166.81-19.39 169.02-18.95 170.41-18.22L170.41-18.22 169.38-13.68Z" transform="translate(0, 28.56999969482422)"></path>
            </g>            <!---->            <!---->            <!---->            <!---->            <!---->            <!---->            <!----></g>
        </g>
      </g>
    </g>    <!----></g>
  <mask id="35f9d67d-d429-4a4c-9bd5-d385a276b3d6">
    <g fill="#fff">
      <rect data-gra="graph-name" x="0" y="0" width="85.20500183105469" height="46.28800048828125"></rect>
    </g>
    <g data-gra="path-name" fill-rule="" class="tp-name" transform="translate(0,8.679000091552734)" stroke="#000" stroke-width="3">
      <g transform="scale(1)">
        <g>
          <path d="M28.04-21.78L28.04-21.78Q28.04-19.13 26.55-16.88 25.06-14.63 21.64-13.46L21.64-13.46 26.86 0 16.83 0 12.87-12.46 12.38-12.46 9.72 0 0 0 6.08-28.57 17.91-28.57Q19.98-28.57 21.82-28.33 23.67-28.08 25.04-27.34 26.41-26.59 27.22-25.27 28.04-23.94 28.04-21.78ZM12.96-15.34L15.07-15.34Q16.25-15.34 17.08-16.13 17.91-16.92 18.43-18.04 18.95-19.17 19.17-20.45 19.39-21.73 19.39-22.68L19.39-22.68Q19.39-23.85 18.99-24.68 18.59-25.52 17.23-25.52L17.23-25.52 15.21-25.52 12.96-15.34ZM29.2-7.42L30.15-11.52 44.33-11.52 43.42-7.42 29.2-7.42ZM76.72-28.57L70.56 0 60.03 0 55.04-20.65 50.63 0 46.58 0 52.65-28.57 63.41-28.57 68.13-7.65 72.59-28.57 76.72-28.57ZM77.94-13.68L78.8-17.68Q81.09-18.81 83.5-19.33 85.91-19.84 88.88-19.84L88.88-19.84Q91.76-19.84 93.65-19.39 95.54-18.95 96.66-18.09 97.79-17.23 98.24-16.06 98.69-14.89 98.69-13.41L98.69-13.41Q98.69-12.55 98.57-11.56 98.46-10.57 98.33-9.9L98.33-9.9 96.21 0 88.97 0 88.16-2.88 87.89-2.88Q86.45-1.3 84.53-0.47 82.62 0.36 80.73 0.36L80.73 0.36Q79.65 0.36 78.62 0.04 77.58-0.27 76.77-0.92 75.96-1.57 75.47-2.59 74.97-3.6 74.97-5.04L74.97-5.04Q74.97-7.38 76.25-8.75 77.54-10.13 79.63-10.82 81.72-11.52 84.35-11.7 86.99-11.88 89.64-11.88L89.64-11.88Q89.73-12.33 89.87-13.16 90-13.99 90-14.63L90-14.63Q90-15.43 89.57-16.13 89.15-16.83 87.8-16.83L87.8-16.83Q86.22-16.83 85.48-15.91 84.74-14.98 84.51-13.68L84.51-13.68 77.94-13.68ZM88.43-6.3L89.15-9.76 88.34-9.76Q87.03-9.76 86.11-9.43 85.19-9.09 84.62-8.55 84.06-8.01 83.79-7.33 83.52-6.66 83.52-5.98L83.52-5.98Q83.52-4.91 84.08-4.37 84.65-3.82 85.41-3.82L85.41-3.82Q86.36-3.82 87.28-4.5 88.2-5.17 88.43-6.3L88.43-6.3ZM121.68-7.42L120.38-1.08Q118.49-0.32 116.39 0.02 114.3 0.36 111.65 0.36L111.65 0.36Q109.31 0.36 107.35-0.11 105.39-0.58 103.95-1.62 102.51-2.65 101.7-4.3 100.89-5.94 100.89-8.28L100.89-8.28Q100.89-10.71 101.72-12.8 102.56-14.89 104.24-16.47 105.93-18.04 108.54-18.95 111.15-19.84 114.75-19.84L114.75-19.84Q117.68-19.84 119.84-19.37 122-18.9 123.39-17.23L123.39-17.23 122.13-11.47 116.01-11.47Q116.06-12.24 116.1-12.82 116.15-13.41 116.15-14.13L116.15-14.13Q116.15-15.57 115.83-16.18 115.52-16.79 114.8-16.79L114.8-16.79Q113.54-16.79 112.59-15.55 111.65-14.31 111.04-12.58 110.43-10.84 110.14-8.93 109.85-7.02 109.85-5.67L109.85-5.67Q109.85-5.17 109.89-4.66 109.94-4.14 110.09-3.69 110.25-3.24 110.52-2.97 110.79-2.7 111.29-2.7L111.29-2.7Q111.74-2.7 112.32-2.97 112.91-3.24 113.45-3.8 113.99-4.37 114.48-5.26 114.98-6.17 115.25-7.42L115.25-7.42 121.68-7.42ZM138.02-19.84L138.02-19.84Q143.37-19.84 145.8-17.95L145.8-17.95Q148.37-15.97 148.37-11.38L148.37-11.38Q148.37-8.55 147.42-6.28 146.47-4 144.77-2.52L144.77-2.52Q141.34 0.36 134.87 0.36L134.87 0.36Q129.33 0.36 126.95-1.75L126.95-1.75Q124.38-3.96 124.38-8.37L124.38-8.37Q124.38-11.29 125.57-13.68 126.77-16.06 129.02-17.64L129.02-17.64Q132.3-19.84 138.02-19.84ZM134.96-2.7L134.96-2.7Q136.08-2.7 136.91-3.96 137.75-5.22 138.24-7.04 138.74-8.87 138.98-10.82 139.23-12.78 139.23-14.22L139.23-14.22Q139.23-15.48 138.98-16.13 138.74-16.79 137.93-16.79L137.93-16.79Q136.71-16.79 135.83-15.48 134.96-14.17 134.41-12.38 133.88-10.57 133.63-8.69 133.38-6.79 133.38-5.63L133.38-5.63Q133.38-2.7 134.96-2.7ZM169.38-13.68L163.53-13.68Q163.57-13.9 163.62-14.13 163.66-14.35 163.66-14.63L163.66-14.63Q163.66-15.43 163.37-16.13 163.08-16.83 162.22-16.83L162.22-16.83Q161.46-16.83 160.69-16.18 159.93-15.52 159.93-14.45L159.93-14.45Q159.93-13.72 160.31-13.3 160.69-12.87 161.32-12.6 161.96-12.33 162.74-12.15 163.53-11.97 164.3-11.79L164.3-11.79Q165.38-11.52 166.34-11.14 167.31-10.75 168.07-10.13 168.84-9.49 169.29-8.57 169.74-7.65 169.74-6.3L169.74-6.3Q169.74-4.41 168.86-3.13 167.99-1.84 166.43-1.06 164.88-0.27 162.79 0.04 160.69 0.36 158.31 0.36L158.31 0.36Q154.66 0.36 152.28-0.18 149.9-0.72 148.95-1.21L148.95-1.21 149.9-5.71 155.97-5.71Q155.93-5.49 155.93-5.29 155.93-5.08 155.93-4.86L155.93-4.86Q155.93-3.82 156.4-3.22 156.87-2.61 158.04-2.61L158.04-2.61Q159.34-2.61 159.91-3.35 160.47-4.09 160.47-4.72L160.47-4.72Q160.47-5.35 160-5.83 159.53-6.3 158.81-6.64 158.09-6.97 157.21-7.22 156.33-7.47 155.52-7.69L155.52-7.69Q154.94-7.83 154.19-8.14 153.45-8.46 152.78-9.04 152.1-9.63 151.65-10.55 151.2-11.47 151.2-12.87L151.2-12.87Q151.2-14.85 152.17-16.18 153.13-17.5 154.69-18.31 156.24-19.13 158.2-19.48 160.16-19.84 162.13-19.84L162.13-19.84Q164.61-19.84 166.81-19.39 169.02-18.95 170.41-18.22L170.41-18.22 169.38-13.68Z" transform="translate(0, 28.56999969482422)"></path>
        </g>        <!---->        <!---->        <!---->        <!---->        <!---->        <!---->        <!----></g>
    </g>
  </mask>
  <defs v-gra="od"></defs>
</svg>