<svg xmlns="http://www.w3.org/2000/svg" xmlns:xlink="http://www.w3.org/1999/xlink" viewBox="0 0 32 32"><path d="M28 30H4a2.002 2.002 0 0 1-2-2v-6a2.002 2.002 0 0 1 2-2h24a2.002 2.002 0 0 1 2 2v6a2.002 2.002 0 0 1-2 2zM4 22v6h24v-6z" fill="currentColor"></path><circle cx="7" cy="25" r="1" fill="currentColor"></circle><path d="M19 11.586l-2-2V6h-2v4.414L17.586 13L19 11.586z" fill="currentColor"></path><path d="M16 18a8 8 0 1 1 8-8a8.01 8.01 0 0 1-8 8zm0-14a6 6 0 1 0 6 6a6.007 6.007 0 0 0-6-6z" fill="currentColor"></path></svg>
